# xmcd
#
# Track frame offsets: 
#        150
#        13318
#        41239
#        55436
#        69411
#        88241
#        106864
#        125802
#        140888
#        158909
#        179438
#        192784
#
# Disc length: 2826 seconds
#
# Revision: 0
# Processed by: cddbd v1.5.1PL0 Copyright (c) Steve Scherf et al.
# Submitted via: ExactAudioCopy v0.90b4
#
DISCID=b70b080c
DTITLE=James Rogers - Wanna Go Home
DYEAR=2002
DGENRE=Blues
TTITLE0=One For Me
TTITLE1=Wanna Go Home
TTITLE2=Hear That Guitar Ring
TTITLE3=I Lied
TTITLE4=San-Ho_Zay
TTITLE5=24 Hours
TTITLE6=Hell To Pay
TTITLE7=Just Not Fair
TTITLE8=Why Get Up
TTITLE9=Hold You
TTITLE10=Bay Area Blues
TTITLE11=Stevie's Groove
EXTD=
EXTT0=
EXTT1=
EXTT2=
EXTT3=
EXTT4=
EXTT5=
EXTT6=
EXTT7=
EXTT8=
EXTT9=
EXTT10=
EXTT11=
PLAYORDER=
